<?xml version="1.0" encoding="utf-8"?>
<!-- Generator: Adobe Illustrator 23.0.2, SVG Export Plug-In . SVG Version: 6.00 Build 0)  -->
<svg version="1.1" id="Layer_1" xmlns="http://www.w3.org/2000/svg" xmlns:xlink="http://www.w3.org/1999/xlink" x="0px" y="0px"
	 viewBox="0 0 830.78 302.18" style="enable-background:new 0 0 830.78 302.18;" xml:space="preserve">
<style type="text/css">
	.st0{fill:#FFFFFF;}
	.st1{fill:#999999;}
	.st2{fill:#E52020;}
</style>
<g>
	<g>
		<g>
			<path d="M164.35,205.72c0-4.04,0.44-7.7,1.33-10.98c0.89-3.28,2.23-6.08,4.03-8.41c1.8-2.32,4.07-4.12,6.8-5.38
				c2.74-1.26,5.95-1.9,9.65-1.9c2.57,0,4.97,0.37,7.21,1.11c2.23,0.74,4.17,1.82,5.82,3.25c1.65,1.42,2.97,3.14,3.97,5.16
				c0.99,2.02,1.56,4.27,1.71,6.75h-9.7c-0.24-2.7-1.2-4.72-2.86-6.05c-1.67-1.34-3.95-2.01-6.84-2.01c-1.53,0-2.96,0.25-4.29,0.75
				c-1.33,0.5-2.46,1.2-3.41,2.1c-0.95,0.9-1.68,1.99-2.21,3.28c-0.52,1.29-0.78,2.74-0.78,4.34v15.54c0,1.53,0.29,2.95,0.86,4.25
				c0.57,1.3,1.35,2.42,2.35,3.36c1,0.94,2.16,1.67,3.48,2.19c1.33,0.52,2.75,0.78,4.29,0.78c3.03,0,5.37-0.66,7.01-1.97
				s2.71-3.46,3.2-6.46h9.7c-0.39,2.94-1.15,5.46-2.29,7.55c-1.14,2.09-2.58,3.81-4.33,5.14c-1.75,1.34-3.76,2.33-6.04,2.99
				c-2.28,0.66-4.74,0.98-7.39,0.98c-3.7,0-6.87-0.66-9.52-1.99c-2.65-1.33-4.85-3.16-6.6-5.49c-1.75-2.33-3.05-5.11-3.88-8.33
				C164.77,213.06,164.35,209.54,164.35,205.72z"/>
			<path d="M213.71,205.57c0-8.7,1.96-15.3,5.89-19.79c3.93-4.49,9.5-6.73,16.72-6.73c7.21,0,12.78,2.24,16.71,6.73
				c3.93,4.49,5.9,11.08,5.9,19.79c0,8.71-1.97,15.3-5.9,19.79c-3.93,4.49-9.5,6.73-16.71,6.73c-7.22,0-12.8-2.24-16.72-6.73
				C215.67,220.87,213.71,214.28,213.71,205.57z M224.14,213.41c0,1.7,0.33,3.2,0.98,4.49c0.66,1.29,1.53,2.38,2.63,3.28
				c1.09,0.9,2.37,1.57,3.83,2.01c1.46,0.44,3.04,0.66,4.74,0.66c1.7,0,3.29-0.22,4.76-0.66c1.47-0.44,2.75-1.11,3.85-2.01
				s1.96-2,2.61-3.3c0.64-1.3,0.97-2.79,0.97-4.47v-15.68c0-1.7-0.32-3.2-0.97-4.49c-0.64-1.29-1.51-2.38-2.61-3.28
				c-1.09-0.9-2.38-1.57-3.85-2.02c-1.47-0.45-3.06-0.67-4.76-0.67c-1.7,0-3.28,0.23-4.74,0.67c-1.46,0.45-2.74,1.13-3.83,2.02
				c-1.09,0.9-1.97,1.99-2.63,3.28c-0.66,1.29-0.98,2.78-0.98,4.49V213.41z"/>
			<path d="M269.85,230.96v-50.81h17.18c8.02,0,13.79,2.1,17.31,6.31c3.51,4.21,5.27,10.58,5.27,19.11c0,8.51-1.76,14.87-5.27,19.08
				s-9.28,6.31-17.31,6.31H269.85z M279.56,222.75h7.48c4.04,0,7.12-0.8,9.26-2.39c2.14-1.59,3.21-4.09,3.21-7.5v-14.63
				c0-3.38-1.07-5.87-3.21-7.46c-2.14-1.59-5.23-2.39-9.26-2.39h-7.48V222.75z"/>
			<path d="M320.64,230.96v-50.81h34.94v8.24h-25.24v12.47h21.81v8.21h-21.81v13.68h25.24v8.21H320.64z"/>
			<path d="M366.72,230.96v-50.81h17.18c8.02,0,13.79,2.1,17.31,6.31c3.51,4.21,5.27,10.58,5.27,19.11c0,8.51-1.76,14.87-5.27,19.08
				s-9.28,6.31-17.31,6.31H366.72z M376.42,222.75h7.48c4.04,0,7.12-0.8,9.26-2.39c2.14-1.59,3.21-4.09,3.21-7.5v-14.63
				c0-3.38-1.07-5.87-3.21-7.46c-2.14-1.59-5.23-2.39-9.26-2.39h-7.48V222.75z"/>
		</g>
		<g>
			<path class="st2" d="M412.59,188.39v-8.24h39.32v8.24H437.1v42.56h-9.7v-42.56H412.59z"/>
			<path class="st2" d="M460.5,230.96v-50.81h9.7v20.86h20.24v-20.86h9.7v50.81h-9.7v-21.74H470.2v21.74H460.5z"/>
			<path class="st2" d="M513.14,230.96v-50.81h9.7v50.81H513.14z"/>
			<path class="st2" d="M535.84,230.96v-50.81h14.49l15.2,38.7h0.29v-38.7h9.7v50.81h-14.63l-15.2-38.77h-0.29v38.77H535.84z"/>
			<path class="st2" d="M588.48,230.96v-50.81h9.7v50.81H588.48z M598.33,203.86l18.31-23.71h11.42l-19.04,23.71l20.1,27.1h-11.2
				L598.33,203.86z"/>
			<path class="st2" d="M637.6,230.96v-50.81h9.7v50.81H637.6z"/>
			<path class="st2" d="M660.29,230.96v-50.81h14.49l15.2,38.7h0.29v-38.7h9.7v50.81h-14.63l-15.2-38.77h-0.29v38.77H660.29z"/>
			<path class="st2" d="M710.85,205.72c0-4.04,0.44-7.7,1.33-10.98c0.89-3.28,2.24-6.08,4.07-8.41c1.82-2.32,4.13-4.12,6.91-5.38
				c2.78-1.26,6.07-1.9,9.87-1.9c2.7,0,5.18,0.37,7.44,1.11c2.26,0.74,4.22,1.82,5.89,3.25c1.67,1.42,3.01,3.14,4.03,5.16
				c1.02,2.02,1.61,4.27,1.75,6.75h-9.7c-0.56-5.37-3.93-8.06-10.1-8.06c-3.28,0-5.95,0.95-7.99,2.84c-2.04,1.9-3.06,4.44-3.06,7.62
				v15.54c0,1.53,0.29,2.95,0.86,4.25s1.36,2.42,2.35,3.36s2.17,1.67,3.52,2.19c1.35,0.52,2.83,0.78,4.43,0.78
				c3.28,0,5.9-0.82,7.86-2.46c1.96-1.64,2.94-4.22,2.94-7.75v-2.19h-10.43v-8.21h20.17v27.72h-9.04l-0.22-4.63
				c-2.6,3.84-6.66,5.76-12.18,5.76c-3.43,0-6.44-0.66-9.03-1.99c-2.59-1.33-4.75-3.16-6.47-5.49c-1.73-2.33-3.02-5.11-3.88-8.33
				C711.29,213.06,710.85,209.54,710.85,205.72z"/>
		</g>
	</g>
	<rect x="764.8" y="220.2" class="st2" width="10.76" height="10.76"/>
	<g>
		<path class="st2" d="M98.62,180.4v18.52c0,1.66,1.34,3,3,3h15.52c1.66,0,3-1.34,3-3V183.4c0-1.66-1.34-3-3-3H98.62z"/>
		<path class="st2" d="M98.62,137.36H58.58c-1.66,0-3,1.34-3,3v37.04c0,1.66,1.34,3,3,3h40.04V137.36z"/>
		<path class="st2" d="M98.62,54.29v83.07h83.07c1.66,0,3-1.34,3-3V54.29c0-1.66-1.34-3-3-3h-80.07
			C99.96,51.29,98.62,52.63,98.62,54.29z"/>
	</g>
</g>
</svg>
